<svg xmlns="http://www.w3.org/2000/svg" version="1.1" xmlns:xlink="http://www.w3.org/1999/xlink" xmlns:svgjs="http://svgjs.com/svgjs" width="512" height="512" x="0" y="0" viewBox="0 0 48 48" style="enable-background:new 0 0 512 512" xml:space="preserve" class=""><g><path d="M42.95 24.28a13.889 13.889 0 0 0 1.95-8.95 13.992 13.992 0 0 0-23.64-8.38 11 11 0 0 1-1.2 18.81 13.959 13.959 0 0 0 8.82 5.08 13.959 13.959 0 0 0 8.52-1.4l2.3.64a2.994 2.994 0 0 0 3.73-3.51zM32 10.5a1.5 1.5 0 1 1-1.5 1.5 1.5 1.5 0 0 1 1.5-1.5zM34 25h-4a1 1 0 0 1 0-2h1v-6h-.5a1 1 0 0 1 0-2h3a1 1 0 0 1 0 2H33v6h1a1 1 0 0 1 0 2z" fill="#ffffff" data-original="#000000" class=""></path><path d="M16 27h-2A11.013 11.013 0 0 0 3 38v4a3 3 0 0 0 3 3h18a3 3 0 0 0 3-3v-4a11.013 11.013 0 0 0-11-11z" fill="#ffffff" data-original="#000000" class=""></path><circle cx="15" cy="16" r="9" fill="#ffffff" data-original="#000000" class=""></circle></g></svg>