<svg xmlns="http://www.w3.org/2000/svg" version="1.1" xmlns:xlink="http://www.w3.org/1999/xlink" xmlns:svgjs="http://svgjs.com/svgjs" width="512" height="512" x="0" y="0" viewBox="0 0 512 512" style="enable-background:new 0 0 512 512" xml:space="preserve" class=""><g><path fill-rule="evenodd" d="M189.279 107.079h284.235L304.693 222.812l-114.834-78.723c4.372-11.707 4.409-24.94-.58-37.01zm-74.337 67.172 41.43-25.226c12.295-7.486 16.376-23.458 9.178-35.925l-37.403-64.784c-3.837-6.647-9.645-10.923-17.131-12.613-7.487-1.691-14.567-.326-20.889 4.027L21.915 86.694C-10.554 201.098 135.355 448.778 247.259 477l74.778-35.591c6.93-3.298 11.653-8.748 13.932-16.077s1.48-14.496-2.358-21.143l-37.403-64.784c-7.197-12.467-23.07-16.919-35.701-10.014l-42.561 23.266c-42.09-37.433-91.63-123.238-103.004-178.406zm379.216-52.288L311.443 247.221c-4.275 2.918-9.768 2.69-13.741-.165l-121.3-83.155a50.509 50.509 0 0 1-7.549 5.624l-26.204 15.954c13.767 44.43 47.832 103.432 79.426 137.569l26.919-14.716c24.052-13.148 54.292-4.666 67.997 19.073l23.196 40.176h135.108c10.668 0 19.396-8.728 19.396-19.396v-221.71a19.25 19.25 0 0 0-.533-4.512z" clip-rule="evenodd" fill="#ffffff" data-original="#000000" class=""></path></g></svg>